<svg width="60" height="60" viewBox="0 0 60 60" fill="none" xmlns="http://www.w3.org/2000/svg">
<g filter="url(#filter0_b_70_344)">
<path d="M0 30C0 13.4315 13.4315 0 30 0C46.5685 0 60 13.4315 60 30C60 46.5685 46.5685 60 30 60C13.4315 60 0 46.5685 0 30Z" fill="white" fill-opacity="0.6"/>
</g>
<path d="M35.25 30H26.25M15 30C15 21.7155 21.7155 15 30 15C38.2845 15 45 21.7155 45 30C45 38.2845 38.2845 45 30 45C21.7155 45 15 38.2845 15 30Z" stroke="#333333" stroke-width="1.5" stroke-linecap="round" stroke-linejoin="round"/>
<path d="M29.25 34.5L24.75 30L29.25 25.5" stroke="#333333" stroke-width="1.5" stroke-linecap="round" stroke-linejoin="round"/>
<defs>
<filter id="filter0_b_70_344" x="-10" y="-10" width="80" height="80" filterUnits="userSpaceOnUse" color-interpolation-filters="sRGB">
<feFlood flood-opacity="0" result="BackgroundImageFix"/>
<feGaussianBlur in="BackgroundImageFix" stdDeviation="5"/>
<feComposite in2="SourceAlpha" operator="in" result="effect1_backgroundBlur_70_344"/>
<feBlend mode="normal" in="SourceGraphic" in2="effect1_backgroundBlur_70_344" result="shape"/>
</filter>
</defs>
</svg>
