<svg width="268" height="50" viewBox="0 0 268 50" fill="none" xmlns="http://www.w3.org/2000/svg">
<path fill-rule="evenodd" clip-rule="evenodd" d="M63.7456 0.595975H94.9399C97.459 0.595975 99.7503 1.6242 101.41 3.2802C103.07 4.93621 104.1 7.22234 104.1 9.73581V40.8602C104.1 43.3744 103.07 45.6596 101.41 47.3156C99.7503 48.9716 97.459 50 94.9399 50H63.7456C61.2257 50 58.9354 48.9716 57.2757 47.3156C55.6159 45.6596 54.5854 43.3744 54.5854 40.8602V9.73581C54.5854 7.22234 55.6159 4.93621 57.2757 3.2802C58.9354 1.6242 61.2257 0.595975 63.7456 0.595975ZM94.9399 1.56449H63.7456C61.494 1.56449 59.4461 2.4844 57.962 3.96497C56.4781 5.44574 55.5563 7.4893 55.5563 9.73581V40.8602C55.5563 43.1067 56.4781 45.1501 57.962 46.6308C59.4461 48.1114 61.494 49.0311 63.7456 49.0311H94.9399C97.1915 49.0311 99.2396 48.1114 100.724 46.6308C102.208 45.1501 103.129 43.1067 103.129 40.8602V9.73581C103.129 7.4893 102.208 5.44574 100.724 3.96497C99.2396 2.4844 97.1915 1.56449 94.9399 1.56449ZM118.331 0.233203H149.525C152.045 0.233203 154.336 1.26142 155.995 2.91743C157.655 4.57343 158.686 6.85957 158.686 9.37304V40.4974C158.686 43.0116 157.655 45.2968 155.995 46.9528C154.336 48.6088 152.045 49.6372 149.525 49.6372H118.331C115.812 49.6372 113.521 48.6088 111.861 46.9528C110.201 45.2968 109.171 43.0116 109.171 40.4974V9.37304C109.171 6.85957 110.201 4.57343 111.861 2.91743C113.521 1.26142 115.812 0.233203 118.331 0.233203ZM149.525 1.2019H118.331C116.079 1.2019 114.031 2.12162 112.547 3.60219C111.063 5.08296 110.142 7.12653 110.142 9.37304V40.4974C110.142 42.7439 111.063 44.7873 112.547 46.2678C114.031 47.7486 116.079 48.6683 118.331 48.6683H149.525C151.777 48.6683 153.825 47.7486 155.309 46.2678C156.793 44.7873 157.715 42.7439 157.715 40.4974V9.37304C157.715 7.12653 156.793 5.08296 155.309 3.60219C153.825 2.12162 151.777 1.2019 149.525 1.2019ZM227.502 0.342286H258.697C261.217 0.342286 263.507 1.37051 265.167 3.02651C266.827 4.68252 267.857 6.96865 267.857 9.48212V40.6065C267.857 43.1207 266.827 45.4061 265.167 47.0621C263.507 48.7181 261.217 49.7463 258.697 49.7463H227.502C224.984 49.7463 222.692 48.7181 221.033 47.0621C219.373 45.4061 218.342 43.1207 218.342 40.6065V9.48212C218.342 6.96865 219.373 4.68252 221.033 3.02651C222.692 1.37051 224.984 0.342286 227.502 0.342286ZM258.697 1.31099H227.502C225.251 1.31099 223.203 2.23071 221.719 3.71148C220.235 5.19205 219.313 7.23561 219.313 9.48212V40.6065C219.313 42.853 220.235 44.8966 221.719 46.3771C223.203 47.8577 225.251 48.7776 227.502 48.7776H258.697C260.948 48.7776 262.996 47.8577 264.48 46.3771C265.964 44.8966 266.886 42.853 266.886 40.6065V9.48212C266.886 7.23561 265.964 5.19205 264.48 3.71148C262.996 2.23071 260.948 1.31099 258.697 1.31099ZM172.916 0H204.111C206.63 0 208.921 1.02842 210.58 2.68423C212.24 4.34043 213.271 6.62636 213.271 9.13984V40.2644C213.271 42.7784 212.24 45.0636 210.58 46.7196C208.921 48.3758 206.63 49.404 204.111 49.404H172.916C170.397 49.404 168.106 48.3758 166.446 46.7196C164.787 45.0636 163.756 42.7784 163.756 40.2644V9.13984C163.756 6.62636 164.787 4.34043 166.446 2.68423C168.106 1.02842 170.397 0 172.916 0ZM204.111 0.968705H172.916C170.665 0.968705 168.617 1.88862 167.133 3.36919C165.649 4.84996 164.727 6.89332 164.727 9.13984V40.2644C164.727 42.5107 165.649 44.5541 167.133 46.0348C168.617 47.5154 170.665 48.4353 172.916 48.4353H204.111C206.362 48.4353 208.41 47.5154 209.894 46.0348C211.378 44.5541 212.3 42.5107 212.3 40.2644V9.13984C212.3 6.89332 211.378 4.84996 209.894 3.36919C208.41 1.88862 206.362 0.968705 204.111 0.968705ZM9.16039 0.233203H40.3547C42.8736 0.233203 45.1649 1.26142 46.8246 2.91743C48.4844 4.57343 49.5151 6.85957 49.5151 9.37304V40.4974C49.5151 43.0116 48.4844 45.2968 46.8246 46.9528C45.1649 48.6088 42.8736 49.6372 40.3547 49.6372H9.16039C6.64028 49.6372 4.34999 48.6088 2.69026 46.9528C1.03053 45.2968 0 43.0116 0 40.4974V9.37304C0 6.85957 1.03053 4.57343 2.69026 2.91743C4.34999 1.26142 6.64028 0.233203 9.16039 0.233203ZM40.3547 1.2019H9.16039C6.90882 1.2019 4.86066 2.12162 3.37676 3.60219C1.89267 5.08296 0.970883 7.12653 0.970883 9.37304V40.4974C0.970883 42.7439 1.89267 44.7873 3.37676 46.2678C4.86066 47.7486 6.90882 48.6683 9.16039 48.6683H40.3547C42.6063 48.6683 44.6542 47.7486 46.1381 46.2678C47.6222 44.7873 48.5442 42.7439 48.5442 40.4974V9.37304C48.5442 7.12653 47.6222 5.08296 46.1381 3.60219C44.6542 2.12162 42.6063 1.2019 40.3547 1.2019ZM129.217 37.5138H138.49C138.769 37.5138 139.026 37.6994 139.102 37.9816L140.385 42.6949H147.084L139.286 13.5819C139.073 12.7537 138.829 11.9433 138.557 11.1518C138.287 10.3689 137.998 9.63356 137.689 8.94626C137.431 8.37194 137 7.93911 136.397 7.64834C135.744 7.33376 134.884 7.17609 133.816 7.17609C133.146 7.17609 132.558 7.27035 132.053 7.45788C131.562 7.64015 131.138 7.91394 130.783 8.27827C130.42 8.65178 130.062 9.26688 129.71 10.1226C129.342 11.0158 128.99 12.1535 128.655 13.5353L128.643 13.5893L120.772 42.6949H127.321L128.599 37.9983C128.667 37.7203 128.918 37.5138 129.217 37.5138ZM136.477 31.365L131.379 31.3897C131.31 31.395 131.238 31.389 131.167 31.37C130.829 31.2799 130.628 30.9327 130.718 30.5951L133.223 21.3481C133.274 21.1323 133.438 20.9497 133.667 20.8847C134.004 20.7891 134.356 20.984 134.451 21.3204L137.085 30.5602C137.099 30.6148 137.107 30.672 137.107 30.7311C137.108 31.0799 136.826 31.3638 136.477 31.365ZM10.9251 42.6949L10.9969 7.17609H25.9437C28.2443 7.17609 30.2135 7.38783 31.8495 7.81071C33.4486 8.22422 34.7317 8.83834 35.6975 9.65288C36.6658 10.4694 37.3865 11.3826 37.8645 12.3914C38.3425 13.3999 38.5827 14.5108 38.5894 15.7227C38.6363 23.847 32.9829 24.11 32.5636 24.1186C32.2669 24.11 31.9954 24.3118 31.928 24.6118C31.8513 24.9521 32.0657 25.2905 32.4069 25.367C32.4244 25.3709 38.5414 26.6705 38.5894 33.9309C38.5976 35.1611 38.3535 36.2914 37.8637 37.32C37.3697 38.358 36.6204 39.2998 35.6231 40.1442C34.6327 40.9831 33.3414 41.6162 31.7517 42.0418C30.1258 42.4769 28.1892 42.6949 25.9437 42.6949H10.9251ZM21.9285 22.4521C22.43 21.9129 23.1163 21.5661 23.8742 21.5347L26.7966 21.5353C27.6705 21.5353 28.4614 21.4371 29.1673 21.2422C29.8919 21.0418 30.5239 20.7375 31.0615 20.331C31.608 19.9175 32.0197 19.4691 32.297 18.9853C32.5896 18.4744 32.7361 17.929 32.7361 17.3488C32.7361 16.7685 32.5937 16.2285 32.3072 15.7295C32.033 15.2516 31.6258 14.8184 31.086 14.4304C30.5632 14.0517 29.9389 13.7683 29.2109 13.5821C28.5023 13.401 27.7018 13.3101 26.8091 13.3101H17.7835C17.4326 13.3101 17.148 13.5938 17.148 13.9439V35.9269C17.148 36.277 17.4326 36.5607 17.7835 36.5607H26.7595C27.6793 36.5607 28.5023 36.4559 29.2264 36.2467C29.975 36.0305 30.6117 35.7029 31.1356 35.265C32.2024 34.3735 32.7361 33.2858 32.7361 32.0041C32.7361 31.3833 32.5974 30.8074 32.3209 30.2774C32.0514 29.7613 31.65 29.2943 31.1182 28.8788C30.5923 28.4671 29.9571 28.1609 29.214 27.9601C28.4978 27.7667 27.6789 27.6697 26.7595 27.6697H23.9647C23.1801 27.6644 22.4662 27.3198 21.9467 26.7728C21.4178 26.2166 21.091 25.4499 21.091 24.6114C21.091 23.773 21.4108 23.009 21.9285 22.4521ZM191.806 13.3673L189.078 25.1254C189.025 25.3549 188.845 25.5459 188.599 25.6009C188.258 25.6774 187.919 25.4634 187.842 25.123L185.172 13.3901C185.086 12.9959 184.993 12.6013 184.893 12.2085C184.788 11.7932 184.683 11.4084 184.579 11.0527C184.471 10.6827 184.357 10.317 184.237 9.95809C184.13 9.63512 184.012 9.30513 183.884 8.96752L183.853 8.88479C183.723 8.55636 183.557 8.27203 183.355 8.0322C183.145 7.78475 182.891 7.57536 182.592 7.40558C182.3 7.23951 181.968 7.11403 181.598 7.02992C181.216 6.94308 180.786 6.89957 180.309 6.89957C180.006 6.89957 179.721 6.92533 179.456 6.97723C179.191 7.02797 178.944 7.10408 178.713 7.20478C178.483 7.30567 178.267 7.43232 178.068 7.58414C177.865 7.73869 177.679 7.91783 177.511 8.12078C177.351 8.31515 177.191 8.5706 177.031 8.88498C176.864 9.21555 176.702 9.60389 176.547 10.049C176.395 10.4858 176.246 10.981 176.101 11.5337C175.954 12.0945 175.811 12.7141 175.673 13.3901L169.147 42.4931L175.464 42.5049L179.673 23.7129C179.713 23.4661 179.898 23.2557 180.158 23.1966C180.499 23.1187 180.839 23.3316 180.917 23.6721L185.281 42.4933H191.509L195.87 23.6678C195.921 23.4362 196.101 23.2428 196.348 23.1864C196.69 23.1085 197.03 23.3215 197.108 23.662L201.445 42.5049L207.88 42.4931L201.355 13.3901C201.235 12.8257 201.115 12.3094 200.994 11.8432C200.869 11.3625 200.74 10.9151 200.607 10.5023C200.474 10.0861 200.337 9.70791 200.198 9.36953C200.059 9.03134 199.917 8.73081 199.774 8.4699C199.492 7.95452 199.087 7.56716 198.561 7.30879C198.007 7.03636 197.306 6.89957 196.462 6.89957C196.157 6.89957 195.871 6.92533 195.605 6.97723C195.341 7.02817 195.093 7.10467 194.861 7.20517C194.631 7.30508 194.414 7.43232 194.212 7.58551C194.018 7.73187 193.841 7.89969 193.681 8.08723L193.654 8.12078C193.494 8.31222 193.334 8.56513 193.174 8.87854C193.003 9.21399 192.839 9.60311 192.683 10.0445C192.532 10.4746 192.382 10.9672 192.236 11.5208C192.09 12.0735 191.949 12.6753 191.814 13.3234L191.806 13.3673ZM253.161 8.26578C252.733 7.73967 252.143 7.3849 251.485 7.30684L232.329 7.24068L232.396 42.8483H238.197V29.3852C238.199 29.0367 238.483 28.7537 238.832 28.7537L246.094 28.733C246.819 28.7307 247.478 28.4005 247.958 27.8674C248.455 27.3149 248.762 26.5453 248.762 25.6897C248.762 24.9418 248.434 24.1707 247.913 23.5872C247.43 23.0471 246.787 22.6769 246.1 22.6546L238.832 22.5994C238.482 22.5994 238.197 22.3155 238.197 21.9656V14.0265C238.199 13.678 238.483 13.3952 238.832 13.3952L250.921 13.362L251.481 13.3575C252.141 13.2795 252.733 12.9243 253.162 12.3982C253.602 11.8563 253.871 11.1315 253.871 10.3318C253.871 9.53228 253.602 8.80751 253.161 8.26578ZM75.9176 27.6878C76.9325 28.7832 78.5353 28.6454 79.9339 28.7044C80.1751 28.7081 80.4035 28.8493 80.5062 29.0841C81.128 30.5028 81.8147 32.0769 82.5649 33.8051C83.3343 35.5776 84.0079 37.1368 84.5888 38.4892C85.2544 40.0384 85.7463 41.238 86.0633 42.0869C86.2046 42.4645 86.3096 42.7894 86.3784 43.0618H93.1501C92.0617 40.8516 86.7086 27.208 86.7086 27.208C86.68 26.8592 86.9399 26.5529 87.2893 26.5244C95.9364 25.3512 97.9068 7.06798 79.9994 7.54316H64.9811L65.0527 43.0618H71.2042V14.311C71.2042 13.9611 71.4886 13.6772 71.8395 13.6772H80.8154C81.7331 13.6772 82.5585 13.7732 83.2917 13.9662C83.9741 14.1186 84.7539 14.496 85.3064 14.9232C85.8146 15.3035 86.2742 15.8013 86.5756 16.3618C86.868 16.9057 87.0147 17.4938 87.0147 18.1232C87.0147 18.7291 86.8629 19.302 86.5617 19.8408C86.2726 20.3578 85.8462 20.8357 85.2855 21.2732C84.7201 21.7136 84.0563 22.0448 83.2958 22.2608C82.5657 22.4681 81.7378 22.5711 80.8131 22.566L78.0039 22.5502C77.4463 22.608 76.6796 22.6624 75.9176 23.4848C75.4159 24.0263 75.1069 24.7669 75.1069 25.5861C75.1069 26.4057 75.4159 27.1461 75.9176 27.6878Z" fill="#EF7F1A"/>
</svg>
