<svg width="60" height="60" viewBox="0 0 60 60" fill="none" xmlns="http://www.w3.org/2000/svg">
<g filter="url(#filter0_b_70_355)">
<path d="M60 30C60 13.4315 46.5685 0 30 0C13.4315 0 0 13.4315 0 30C0 46.5685 13.4315 60 30 60C46.5685 60 60 46.5685 60 30Z" fill="white" fill-opacity="0.6"/>
</g>
<path d="M24.75 30H33.75M45 30C45 21.7155 38.2845 15 30 15C21.7155 15 15 21.7155 15 30C15 38.2845 21.7155 45 30 45C38.2845 45 45 38.2845 45 30Z" stroke="#333333" stroke-width="1.5" stroke-linecap="round" stroke-linejoin="round"/>
<path d="M30.75 34.5L35.25 30L30.75 25.5" stroke="#333333" stroke-width="1.5" stroke-linecap="round" stroke-linejoin="round"/>
<defs>
<filter id="filter0_b_70_355" x="-10" y="-10" width="80" height="80" filterUnits="userSpaceOnUse" color-interpolation-filters="sRGB">
<feFlood flood-opacity="0" result="BackgroundImageFix"/>
<feGaussianBlur in="BackgroundImageFix" stdDeviation="5"/>
<feComposite in2="SourceAlpha" operator="in" result="effect1_backgroundBlur_70_355"/>
<feBlend mode="normal" in="SourceGraphic" in2="effect1_backgroundBlur_70_355" result="shape"/>
</filter>
</defs>
</svg>
