<svg width="67" height="108" viewBox="0 0 67 108" fill="none" xmlns="http://www.w3.org/2000/svg">
<path d="M30.2019 8.2242C28.4971 15.0053 33.3777 18.0418 39.9259 19.6922C46.4795 21.3461 52.2172 20.9853 53.9194 14.2042C55.6016 7.52295 50.9217 3.67925 44.3721 2.02473C37.8238 0.375004 31.9373 1.31684 30.2019 8.2242Z" fill="#EF7F1A"/>
<path d="M31.4895 8.54898C30.8158 11.2317 31.2782 13.3221 32.9047 14.9377C34.369 16.3905 36.7714 17.5242 40.2502 18.4009C47.6914 20.2774 51.3495 18.9893 52.6318 13.8794C53.3174 11.1546 52.8617 8.94152 51.2406 7.11441C49.7563 5.44233 47.2675 4.12725 44.0478 3.31583C42.3018 2.87512 40.694 2.65317 39.2695 2.65317C35.032 2.65317 32.4874 4.58101 31.4895 8.54898ZM39.6017 20.9812C35.6473 19.9848 32.8462 18.6261 31.0337 16.827C28.7163 14.525 28.0014 11.5216 28.913 7.89829C30.6032 1.17482 36.2133 -1.40689 44.6963 0.735712C48.49 1.69205 51.3601 3.24251 53.2258 5.34612C55.4143 7.81047 56.0999 10.9869 55.2083 14.5292C53.9885 19.386 50.7702 21.8488 45.6437 21.8488C43.8884 21.8488 41.9112 21.5655 39.6017 20.9812Z" fill="white"/>
<path d="M2.12588 94.8693C3.08128 88.5675 8.46288 86.1298 11.6506 85.1754C14.8371 84.2164 20.1216 83.865 23.4662 81.9512C26.8121 80.0378 26.2805 70.465 26.2805 70.465H33.4998H40.7205C40.7205 70.465 40.1876 80.0378 43.5335 81.9512C46.8767 83.865 52.1626 84.2164 55.3477 85.1754C58.5341 86.1298 63.9197 88.5675 64.8725 94.8693C65.6378 99.9164 65.671 106.669 65.671 106.669H33.4998H1.32861C1.32861 106.669 1.3605 99.9164 2.12588 94.8693Z" fill="#EF7F1A"/>
<path d="M63.5584 95.0673C62.7678 89.8367 58.4506 87.4936 54.9639 86.4504C53.9367 86.139 52.6265 85.8884 51.2393 85.6223C48.4369 85.0823 45.2624 84.473 42.8746 83.1061C39.6603 81.2686 39.3174 74.8867 39.3493 71.7956H27.6507C27.6826 74.8867 27.3398 81.2686 24.1254 83.1061C21.7376 84.473 18.5605 85.0838 15.7594 85.6223C14.3722 85.8884 13.0606 86.1401 12.0322 86.4504C8.54942 87.4936 4.23353 89.8367 3.43892 95.0689C2.89943 98.6351 2.73068 103.136 2.68019 105.339H64.3198C64.268 103.136 64.0979 98.6335 63.5584 95.0673ZM0.386707 107.608C0.138224 107.357 -0.00131938 107.018 9.40375e-06 106.663C0.00133819 106.383 0.0398885 99.7542 0.813241 94.6682C1.59324 89.5109 5.30718 85.6863 11.2681 83.9009C12.4268 83.5521 13.8021 83.2885 15.2585 83.0093C17.8576 82.5089 20.8022 81.9434 22.8073 80.7962C24.6198 79.7598 25.1526 74.1736 24.9546 70.5398C24.9333 70.1738 25.0649 69.8173 25.3147 69.5496C25.5658 69.2851 25.9153 69.1343 26.2807 69.1343H40.7206C41.0847 69.1343 41.4355 69.2851 41.6853 69.5496C41.9365 69.8173 42.0667 70.1738 42.0468 70.5398C41.8448 74.1725 42.3776 79.7571 44.1927 80.7962C46.1965 81.9434 49.1425 82.5089 51.7402 83.0079C53.1953 83.2885 54.5719 83.5521 55.7293 83.9009C61.6928 85.6863 65.4068 89.5119 66.1855 94.6682C66.9575 99.7542 66.9987 106.383 67 106.663C67.0013 107.017 66.8631 107.357 66.6133 107.608C66.3648 107.859 66.0247 108 65.6712 108H1.32879C0.976666 108 0.636518 107.859 0.386707 107.608Z" fill="white"/>
<path d="M12.9358 46.5763C12.9358 46.5763 9.88887 33.5426 13.4341 26.2933C17.2543 18.4794 22.9894 14.0124 33.5 14.0124C44.0081 14.0124 49.7471 18.4794 53.5674 26.2933C57.1125 33.5426 54.063 46.5763 54.063 46.5763C58.84 45.6168 57.9457 50.854 56.4535 53.2186C55.215 55.1838 55.1885 55.3943 54.4417 57.5498C53.3667 60.6597 50.8991 58.5079 50.8991 58.5079C49.4641 62.4961 48.4489 63.4395 42.7364 68.7127C37.7615 73.3102 36.0154 73.2593 33.5 73.2593C30.986 73.2593 29.2772 73.3102 24.2637 68.7127C18.5313 63.4608 17.5347 62.4961 16.1009 58.5079C16.1009 58.5079 13.6334 60.6597 12.5584 57.5498C11.8116 55.3943 11.785 55.1838 10.5479 53.2186C9.05306 50.854 8.15746 45.6168 12.9358 46.5763Z" fill="#EF7F1A"/>
<path d="M33.6619 71.9287C35.8517 71.9287 37.2974 71.9287 41.8366 67.7336C47.456 62.545 48.3197 61.7482 49.6485 58.0573C49.796 57.6472 50.1388 57.3399 50.5574 57.2267C50.9799 57.1149 51.4291 57.2188 51.7626 57.4969C51.9579 57.6606 52.3699 57.9029 52.6383 57.9029C52.9 57.9029 53.1392 57.2453 53.187 57.1133L53.3465 56.6508C53.9843 54.8024 54.1411 54.3939 55.3291 52.5081C56.1941 51.1374 56.5755 49.0509 56.1157 48.2141C56.04 48.0774 55.8832 47.7911 55.1297 47.7911C54.8932 47.7911 54.6208 47.8201 54.3232 47.8804C53.8793 47.9641 53.4223 47.8269 53.1073 47.501C52.7937 47.1761 52.6662 46.713 52.7685 46.2718C52.7991 46.1475 55.6719 33.6223 52.3725 26.8776C48.4207 18.794 42.776 15.3431 33.4998 15.3431C24.2249 15.3431 18.5802 18.794 14.627 26.8776C11.3343 33.613 14.2005 46.1475 14.2284 46.2727C14.3307 46.713 14.2045 47.1761 13.8882 47.501C13.5746 47.8269 13.1162 47.9651 12.6737 47.8804C12.3774 47.8201 12.105 47.7911 11.8672 47.7911C11.1137 47.7911 10.957 48.0774 10.8825 48.2141C10.4215 49.0509 10.8041 51.139 11.6705 52.5096C12.8584 54.3939 13.0152 54.8024 13.6544 56.6508L13.8151 57.1149C13.8603 57.2453 14.1008 57.9029 14.3613 57.9029C14.6297 57.9029 15.043 57.6606 15.229 57.5048C15.5585 57.2131 16.0143 57.1081 16.4355 57.2199C16.8607 57.3306 17.2036 57.643 17.3524 58.0573C18.6506 61.6765 19.4319 62.4842 25.1617 67.7309C29.738 71.9287 31.1704 71.9287 33.3377 71.9287H33.4998H33.6619ZM23.3665 69.6947C18.24 64.999 16.7279 63.5446 15.4044 60.3936C15.0868 60.4961 14.7333 60.5642 14.3613 60.5642C13.5507 60.5642 12.0784 60.2283 11.3038 57.9866L11.1416 57.5193C10.5596 55.8295 10.4839 55.6127 9.42487 53.9307C8.44954 52.387 7.3493 49.1217 8.55451 46.9303C9.10861 45.9229 10.068 45.308 11.2918 45.162C10.5796 41.2803 9.28002 31.762 12.2392 25.7076C16.6441 16.6992 23.2004 12.6818 33.4998 12.6818C43.7992 12.6818 50.3567 16.6992 54.7603 25.7076C57.7209 31.762 56.4186 41.2803 55.7051 45.162C56.9289 45.308 57.8896 45.9229 58.4437 46.9287C59.6476 49.1191 58.5514 52.3843 57.576 53.9281C56.5157 55.6127 56.4412 55.8295 55.8579 57.5193L55.6971 57.985C54.9211 60.2283 53.4488 60.5642 52.6383 60.5642C52.2649 60.5642 51.9127 60.4961 51.5925 60.3936C50.2438 63.5925 48.7037 65.0135 43.6371 69.6911C38.6927 74.2604 36.5706 74.59 33.5808 74.59L33.4998 73.2593L33.42 74.59C33.4187 74.59 33.3377 74.59 33.3377 74.59C30.4662 74.59 28.4477 74.3535 23.3665 69.6947Z" fill="white"/>
<path d="M19.8094 14.0124C31.512 7.89147 41.353 14.0124 41.353 14.0124C65.6087 16.6982 57.1204 47.3268 57.1204 47.3268H57.1071C56.5849 46.6225 55.6348 46.2623 54.0628 46.5763C54.3977 44.3448 51.6591 41.6274 47.3591 38.439C43.0592 35.2497 41.353 30.6247 41.353 30.6247C41.353 30.6247 37.0504 38.7572 26.2806 40.9102C15.5041 43.063 13.2333 44.5845 12.9356 46.5763C11.365 46.2623 10.4149 46.6225 9.89403 47.3268H9.87807C9.87807 47.3268 3.36304 22.6164 19.8094 14.0124Z" fill="#EF7F1A"/>
<path d="M20.4248 15.1929C7.56088 21.9235 9.73477 39.6356 10.7912 45.255C11.1499 45.1672 11.5685 45.1136 12.015 45.1323C13.2042 42.8318 16.974 41.4133 26.0203 39.6066C35.9982 37.6117 40.14 30.0748 40.1799 30.0015C40.423 29.5389 40.8988 29.278 41.4409 29.2977C41.9618 29.331 42.4162 29.6704 42.5996 30.1601C42.6155 30.2027 44.2406 34.47 48.1499 37.3694C52.5243 40.6123 54.746 42.9965 55.2895 45.1339C55.6363 45.1459 55.9512 45.1895 56.2343 45.2602C57.1139 40.9793 58.7842 29.621 53.7627 22.199C51.1065 18.2721 46.8823 15.9632 41.2084 15.3353C41.0117 15.314 40.8217 15.2474 40.6556 15.1451C40.6144 15.1196 36.4898 12.6221 30.5967 12.6221C27.1073 12.6221 23.6844 13.4885 20.4248 15.1929ZM8.59334 47.6657C8.31563 46.6163 2.00656 21.8248 19.1957 12.8326C22.8379 10.928 26.6728 9.96079 30.5967 9.96079C36.4473 9.96079 40.6848 12.1075 41.7824 12.7219C48.1287 13.4885 52.9003 16.1737 55.9672 20.7125C62.9141 30.9907 58.5875 47.0061 58.4002 47.6834C58.2407 48.2593 57.7039 48.6575 57.1073 48.6575C56.686 48.6575 56.2914 48.4579 56.0402 48.1195C55.9725 48.0306 55.7971 47.7926 55.1207 47.7926C54.8855 47.7926 54.6171 47.8217 54.3235 47.8804C54.2371 47.8975 54.1494 47.907 54.063 47.907C54.055 47.9054 54.0471 47.9054 54.0364 47.907C53.3016 47.907 52.7077 47.3118 52.7077 46.5763C52.7077 46.4433 52.7263 46.3169 52.7621 46.1958C52.7688 44.8116 50.6879 42.563 46.5687 39.5078C43.8912 37.5228 42.1584 35.0407 41.1685 33.286C39.081 36.0003 34.482 40.6269 26.5399 42.2158C18.2642 43.8698 14.4745 45.2747 14.25 46.7733C14.1955 47.1335 13.9962 47.4558 13.6985 47.6647C13.4022 47.8737 13.0315 47.9506 12.674 47.8804C12.3817 47.8217 12.1133 47.7926 11.8794 47.7926C11.2031 47.7926 11.0277 48.0306 10.9599 48.1195C10.7101 48.4579 10.3141 48.6575 9.89423 48.6575H9.87827C9.275 48.6575 8.74748 48.2515 8.59334 47.6657Z" fill="white"/>
<path d="M43.5335 81.9512C46.8767 83.865 52.1626 84.2164 55.3477 85.1754C58.5341 86.1298 63.9197 88.5675 64.8725 94.8693C65.6378 99.9164 65.671 106.669 65.671 106.669H33.4998H1.32861C1.32861 106.669 1.3605 99.9164 2.12588 94.8693C3.08128 88.5675 8.46288 86.1298 11.6506 85.1754C14.8371 84.2164 20.1216 83.865 23.4662 81.9512C23.6123 81.8691 23.7439 81.7651 23.8741 81.6585L33.5809 91.9632L43.1255 81.6585C43.2558 81.7651 43.3886 81.8691 43.5335 81.9512Z" fill="#EF7F1A"/>
<path d="M63.5584 95.0673C62.7678 89.8367 58.4506 87.4936 54.9639 86.4504C53.9367 86.139 52.6265 85.8884 51.2393 85.6223C48.6189 85.1181 45.673 84.5526 43.3556 83.367L34.5551 92.8681C34.3052 93.1379 33.9544 93.2923 33.5864 93.2937C33.585 93.2937 33.5824 93.2937 33.5811 93.2937C33.2143 93.2937 32.8662 93.1436 32.6137 92.8775L23.6524 83.3618C21.327 84.5526 18.3798 85.1181 15.7594 85.6223C14.3722 85.8884 13.0606 86.1401 12.0322 86.4504C8.54942 87.4936 4.23353 89.8367 3.43892 95.0689C2.89943 98.6351 2.73068 103.136 2.68019 105.339H64.3198C64.268 103.136 64.0979 98.6335 63.5584 95.0673ZM0.386707 107.608C0.138224 107.357 -0.00131938 107.018 9.40375e-06 106.663C0.00133819 106.383 0.0398885 99.7542 0.813241 94.6682C1.59324 89.5109 5.30718 85.6863 11.2681 83.9009C12.4268 83.5521 13.8021 83.2885 15.2585 83.0093C17.8576 82.5089 20.8022 81.9434 22.8153 80.7925C22.8937 80.7483 22.9614 80.687 23.0318 80.6299C23.5727 80.1854 24.362 80.2373 24.8417 80.7458L33.5731 90.015L42.1517 80.7535C42.6301 80.2373 43.426 80.1844 43.9682 80.6299C44.0386 80.687 44.1077 80.7483 44.1927 80.7962C46.1965 81.9434 49.1425 82.5089 51.7402 83.0079C53.1953 83.2885 54.5719 83.5521 55.7293 83.9009C61.6928 85.6863 65.4068 89.5119 66.1855 94.6682C66.9575 99.7542 66.9987 106.383 67 106.663C67.0013 107.017 66.8631 107.357 66.6133 107.608C66.3648 107.859 66.0247 108 65.6712 108H1.32879C0.976666 108 0.636518 107.859 0.386707 107.608Z" fill="white"/>
<path d="M23.6299 81.9511C23.776 81.869 23.9103 81.7651 24.0405 81.6585C24.0405 81.6585 28.7895 84.8921 33.5838 84.8921C38.4777 84.8921 43.1258 81.6585 43.1258 81.6585C43.256 81.7651 43.3889 81.869 43.5337 81.9511C45.0446 82.816 46.9514 83.354 48.8794 83.7807V83.7875L33.5838 100.598L18.2842 83.7875V83.7807C20.2149 83.354 22.123 82.816 23.6299 81.9511Z" fill="#EF7F1A"/>
<path d="M43.1148 83.2422C41.5203 84.2003 37.6748 86.2227 33.5835 86.2227C29.5599 86.2227 25.6626 84.1894 24.0561 83.2365C23.0263 83.7943 21.8716 84.208 20.758 84.5314L33.5835 98.6216L46.4049 84.5303C45.2927 84.2096 44.1407 83.7959 43.1148 83.2422ZM32.6002 101.493L17.3019 84.6847C17.0787 84.4384 16.9551 84.1124 16.9551 83.7808C16.9551 83.1571 17.3883 82.6164 17.9969 82.4808C19.5409 82.1387 21.5022 81.6388 22.9785 80.7925C23.0569 80.7473 23.1273 80.687 23.1977 80.6299C23.6535 80.2561 24.2966 80.2281 24.7883 80.5582C24.8321 80.5872 29.249 83.5615 33.5835 83.5615C37.9884 83.5615 42.3256 80.594 42.3694 80.5649C42.8571 80.2297 43.5108 80.2535 43.9679 80.6299C44.0384 80.687 44.1075 80.7484 44.1938 80.7963C45.6635 81.6388 47.6234 82.1387 49.1661 82.4808C49.7747 82.6164 50.2079 83.1639 50.2079 83.7875C50.2079 84.1191 50.0857 84.4384 49.8624 84.6847L34.5655 101.493C34.313 101.77 33.9569 101.928 33.5835 101.928C33.2088 101.928 32.8527 101.77 32.6002 101.493Z" fill="white"/>
<path d="M28.117 66.7023C28.8518 66.7023 29.4458 66.1071 29.4458 65.3716C29.4458 64.6355 28.8518 64.041 28.117 64.041C19.9848 64.041 14.2684 62.294 11.5869 58.9881C9.3851 56.2754 9.94584 53.4384 9.94983 53.4119C10.1013 52.6921 9.64022 51.9851 8.92268 51.8359C8.19716 51.6779 7.50087 52.1478 7.34939 52.8645C7.31484 53.0309 6.53353 56.9802 9.52462 60.6675C12.7735 64.6714 19.0307 66.7023 28.117 66.7023Z" fill="white"/>
<path d="M4.32129 50.3006C4.32129 45.2763 6.3982 41.2045 8.96409 41.1778V41.1753H10.6357V41.7367C12.5252 43.0153 14.0334 46.3622 14.0334 50.3006C14.0334 54.238 12.5252 57.5832 10.6357 58.8619V59.4248H8.96409V59.4223C6.3982 59.3957 4.32129 55.3211 4.32129 50.3006Z" fill="#EF7F1A"/>
<path d="M9.89259 57.7604C11.2891 56.8139 12.7043 53.9478 12.7043 50.3005C12.7043 46.6522 11.2891 43.7845 9.89259 42.8385C9.75838 42.7491 9.6441 42.6363 9.55241 42.5069L8.97704 42.5084C7.40642 42.5245 5.64976 45.8606 5.64976 50.3005C5.64976 54.7331 7.40375 58.0676 8.97305 58.0941H9.55108C9.64144 57.9637 9.75705 57.8519 9.89259 57.7604ZM8.95047 60.7528C5.5541 60.7169 2.99219 56.2235 2.99219 50.3005C2.99219 44.3781 5.55411 39.883 8.96377 39.8446H10.6354C11.3383 39.8446 11.915 40.3924 11.9615 41.0858C14.0184 42.8993 15.3619 46.4801 15.3619 50.3005C15.3619 54.1193 14.0184 57.699 11.9615 59.5141C11.9163 60.207 11.3396 60.7554 10.6354 60.7554H8.96377C8.95846 60.7554 8.95446 60.7528 8.95047 60.7528Z" fill="white"/>
<path d="M8.84277 57.5021C8.84277 58.6918 9.61746 59.6592 10.5729 59.6592H12.3043C13.2597 59.6592 14.033 58.6918 14.033 57.5021V43.0979C14.033 41.9055 13.2597 40.9408 12.3043 40.9408H10.5729C9.61746 40.9408 8.84277 41.9055 8.84277 43.0979V57.5021Z" fill="#EF7F1A"/>
<path d="M10.5735 42.2715C10.4499 42.2715 10.1722 42.5844 10.1722 43.0979V57.5021C10.1722 58.0172 10.4499 58.3286 10.5735 58.3286H12.3049C12.4272 58.3286 12.7049 58.0172 12.7049 57.5021V43.0979C12.7049 42.5844 12.4272 42.2715 12.3049 42.2715H10.5735ZM7.51465 57.5021V43.0979C7.51465 41.1753 8.88729 39.6102 10.5735 39.6102H12.3049C13.9912 39.6102 15.3625 41.1753 15.3625 43.0979V57.5021C15.3625 59.4248 13.9912 60.9899 12.3049 60.9899H10.5735C8.88729 60.9899 7.51465 59.4248 7.51465 57.5021Z" fill="white"/>
<path d="M62.6761 50.3006C62.6761 45.2763 60.6032 41.2045 58.036 41.1778V41.1753H56.3644V41.7367C54.4748 43.0153 52.9653 46.3622 52.9653 50.3006C52.9653 54.238 54.4748 57.5832 56.3644 58.8619V59.4248H58.036V59.4223C60.6032 59.3957 62.6761 55.3211 62.6761 50.3006Z" fill="#EF7F1A"/>
<path d="M57.4502 42.5059C57.3571 42.6348 57.2429 42.7481 57.1086 42.8385C55.7094 43.7856 54.2943 46.6522 54.2943 50.3005C54.2943 53.9467 55.7094 56.8128 57.1086 57.7604C57.2429 57.8519 57.3571 57.9637 57.4488 58.093L58.0215 58.0916C59.5922 58.0744 61.3475 54.7394 61.3475 50.3005C61.3475 45.8606 59.5921 42.523 58.0361 42.5059H57.4502ZM55.0384 59.5141C52.9801 57.699 51.6367 54.1193 51.6367 50.3005C51.6367 46.4817 52.9801 42.8993 55.0384 41.0858C55.061 40.7666 55.1965 40.462 55.4251 40.2329C55.6762 39.9854 56.0137 39.8446 56.3645 39.8446C56.3659 39.8446 56.3659 39.8446 56.3672 39.8446L58.0494 39.8471C61.4445 39.883 64.0051 44.3765 64.0051 50.3005C64.0051 56.2219 61.4458 60.7169 58.0361 60.7554H56.3645C55.6603 60.7554 55.0836 60.207 55.0384 59.5141Z" fill="white"/>
<path d="M58.1556 57.5021C58.1556 58.6918 57.3822 59.6592 56.4268 59.6592H54.6954C53.7413 59.6592 52.9653 58.6918 52.9653 57.5021V43.0979C52.9653 41.9055 53.7413 40.9408 54.6954 40.9408H56.4268C57.3822 40.9408 58.1556 41.9055 58.1556 43.0979V57.5021Z" fill="#EF7F1A"/>
<path d="M54.6956 42.2715C54.5733 42.2715 54.2943 42.5844 54.2943 43.0979V57.5021C54.2943 58.0172 54.5733 58.3286 54.6956 58.3286H56.427C56.5492 58.3286 56.827 58.0172 56.827 57.5021V43.0979C56.827 42.5844 56.5492 42.2715 56.427 42.2715H54.6956ZM51.6367 57.5021V43.0979C51.6367 41.1753 53.0094 39.6102 54.6956 39.6102H56.427C58.1132 39.6102 59.4845 41.1753 59.4845 43.0979V57.5021C59.4845 59.4248 58.1132 60.9899 56.427 60.9899H54.6956C53.0094 60.9899 51.6367 59.4248 51.6367 57.5021Z" fill="white"/>
<path d="M8.86589 43.2283C9.60071 43.2283 10.1947 42.6337 10.1947 41.8976C10.1947 29.029 20.6496 18.5595 33.5003 18.5595C46.3509 18.5595 56.8058 29.029 56.8058 41.8976C56.8058 42.6337 57.3998 43.2283 58.1346 43.2283C58.8694 43.2283 59.4634 42.6337 59.4634 41.8976C59.4634 27.5626 47.8166 15.8982 33.5003 15.8982C19.1853 15.8982 7.53711 27.5626 7.53711 41.8976C7.53711 42.6337 8.13108 43.2283 8.86589 43.2283Z" fill="white"/>
<path d="M25.626 65.3965C25.626 66.3696 26.491 67.1571 27.5527 67.1571H34.1289C35.1906 67.1571 36.0543 66.3696 36.0543 65.3965V65.3436C36.0543 64.3721 35.1906 63.5857 34.1289 63.5857H27.5527C26.491 63.5857 25.626 64.3721 25.626 65.3436V65.3965Z" fill="#EF7F1A"/>
<path d="M27.5524 64.9163C27.2003 64.9163 26.9544 65.1414 26.9544 65.3966C26.9544 65.6003 27.2003 65.8265 27.5524 65.8265H34.1286C34.4794 65.8265 34.7252 65.6003 34.7252 65.3436C34.7252 65.1414 34.4794 64.9163 34.1286 64.9163H27.5524ZM24.2969 65.3436C24.2969 63.6403 25.7572 62.2551 27.5524 62.2551H34.1286C35.9224 62.2551 37.3827 63.6403 37.3827 65.3966C37.3827 67.1015 35.9224 68.4878 34.1286 68.4878H27.5524C25.7572 68.4878 24.2969 67.1015 24.2969 65.3436Z" fill="white"/>
</svg>
