<svg width="36" height="36" viewBox="0 0 36 36" fill="none" xmlns="http://www.w3.org/2000/svg">
<path d="M15.48 28.455C15.69 28.62 15.9 28.77 16.125 28.935C17.835 30.18 19.56 31.17 21.285 31.905C23.01 32.64 24.645 33 26.175 33C27.225 33 28.2 32.805 29.1 32.43C30.015 32.055 30.825 31.47 31.56 30.66C31.995 30.18 32.325 29.67 32.58 29.13C32.835 28.59 32.955 28.035 32.955 27.495C32.955 27.075 32.865 26.7 32.715 26.325C32.55 25.95 32.28 25.635 31.89 25.365L26.925 21.84C26.55 21.585 26.205 21.39 25.875 21.255C25.545 21.12 25.245 21.06 24.96 21.06C24.585 21.06 24.24 21.165 23.895 21.375C23.55 21.555 23.19 21.84 22.815 22.215L21.675 23.34C21.5958 23.4229 21.5003 23.4884 21.3944 23.5323C21.2885 23.5762 21.1746 23.5976 21.06 23.595C20.9324 23.5983 20.8052 23.578 20.685 23.535C20.58 23.49 20.49 23.445 20.415 23.415C20.13 23.265 19.8 23.055 19.44 22.785M16.095 19.83C15.315 19.035 14.595 18.24 13.92 17.46C13.26 16.68 12.795 16.035 12.525 15.54C12.495 15.45 12.45 15.36 12.405 15.24C12.3753 15.1274 12.3602 15.0115 12.36 14.895C12.36 14.655 12.435 14.46 12.6 14.295L13.74 13.11C14.1 12.75 14.385 12.39 14.58 12.045C14.79 11.7 14.895 11.34 14.895 10.98C14.895 10.695 14.82 10.38 14.685 10.065C14.55 9.73502 14.355 9.39002 14.085 9.01502L10.605 4.11002C10.3526 3.74383 10.0052 3.45341 9.6 3.27002C9.22016 3.09065 8.80505 2.99841 8.385 3.00002C7.275 3.00002 6.225 3.46502 5.265 4.41002C4.47 5.16002 3.9 6.00002 3.54 6.91502C3.18 7.81502 3 8.79002 3 9.81002C3 11.37 3.36 13.005 4.08 14.715C4.8 16.41 5.79 18.12 7.02 19.83C8.265 21.54 9.66 23.175 11.205 24.735" stroke="url(#paint0_linear_336_402)" stroke-width="2" stroke-miterlimit="10" stroke-linecap="round" stroke-linejoin="round"/>
<path d="M33 3L3 33" stroke="url(#paint1_linear_336_402)" stroke-width="2" stroke-linecap="round" stroke-linejoin="round"/>
<defs>
<linearGradient id="paint0_linear_336_402" x1="18.5392" y1="-10.875" x2="41.6183" y2="0.647267" gradientUnits="userSpaceOnUse">
<stop stop-color="#CB2D3E"/>
<stop offset="1" stop-color="#EF473A"/>
</linearGradient>
<linearGradient id="paint1_linear_336_402" x1="18.5625" y1="-10.875" x2="41.6625" y2="0.674999" gradientUnits="userSpaceOnUse">
<stop stop-color="#CB2D3E"/>
<stop offset="1" stop-color="#EF473A"/>
</linearGradient>
</defs>
</svg>
