<svg width="39" height="40" viewBox="0 0 39 40" fill="none" xmlns="http://www.w3.org/2000/svg">
<path d="M16.8833 31.0656C17.1073 31.2416 17.3313 31.4016 17.5713 31.5776C19.3953 32.9056 21.2353 33.9616 23.0753 34.7456C24.9153 35.5296 26.6593 35.9136 28.2913 35.9136C29.4113 35.9136 30.4513 35.7056 31.4113 35.3056C32.3873 34.9056 33.2513 34.2816 34.0353 33.4176C34.4993 32.9056 34.8513 32.3616 35.1233 31.7856C35.3953 31.2096 35.5233 30.6176 35.5233 30.0416C35.5233 29.5936 35.4273 29.1936 35.2673 28.7936C35.0913 28.3936 34.8033 28.0576 34.3873 27.7696L29.0913 24.0096C28.6913 23.7376 28.3233 23.5296 27.9713 23.3856C27.6193 23.2416 27.2993 23.1776 26.9953 23.1776C26.5953 23.1776 26.2273 23.2896 25.8593 23.5136C25.4913 23.7056 25.1073 24.0096 24.7073 24.4096L23.4913 25.6096C23.4068 25.698 23.3049 25.7679 23.1919 25.8147C23.079 25.8615 22.9575 25.8843 22.8353 25.8816C22.6991 25.8851 22.5635 25.8634 22.4353 25.8176C22.3233 25.7696 22.2273 25.7216 22.1473 25.6896C21.8433 25.5296 21.4913 25.3056 21.1073 25.0176M17.5393 21.8656C16.7073 21.0176 15.9393 20.1696 15.2193 19.3376C14.5153 18.5056 14.0193 17.8176 13.7313 17.2896C13.6993 17.1936 13.6513 17.0976 13.6033 16.9696C13.5716 16.8495 13.5555 16.7258 13.5553 16.6016C13.5553 16.3456 13.6353 16.1376 13.8113 15.9616L15.0273 14.6976C15.4113 14.3136 15.7153 13.9296 15.9233 13.5616C16.1473 13.1936 16.2593 12.8096 16.2593 12.4256C16.2593 12.1216 16.1793 11.7856 16.0353 11.4496C15.8913 11.0976 15.6833 10.7296 15.3953 10.3296L11.6833 5.0976C11.4141 4.70699 11.0435 4.39721 10.6113 4.2016C10.2061 4.01027 9.76335 3.91187 9.31529 3.9136C8.13129 3.9136 7.01129 4.4096 5.98729 5.4176C5.13929 6.2176 4.53129 7.1136 4.14729 8.0896C3.76329 9.0496 3.57129 10.0896 3.57129 11.1776C3.57129 12.8416 3.95529 14.5856 4.72329 16.4096C5.49129 18.2176 6.54729 20.0416 7.85929 21.8656C9.18729 23.6896 10.6753 25.4336 12.3233 27.0976" stroke="white" stroke-width="2" stroke-miterlimit="10" stroke-linecap="round" stroke-linejoin="round"/>
<path d="M35.5713 3.91357L3.57129 35.9136" stroke="white" stroke-width="2" stroke-linecap="round" stroke-linejoin="round"/>
</svg>
