<svg width="121" height="61" viewBox="0 0 121 61" fill="none" xmlns="http://www.w3.org/2000/svg">
<rect x="0.571289" y="0.913574" width="120" height="60" rx="30" fill="url(#paint0_linear_207_9284)"/>
<rect x="1.57129" y="1.91357" width="118" height="58" rx="29" stroke="url(#paint1_linear_207_9284)" stroke-opacity="0.25" stroke-width="2"/>
<path d="M57.8833 42.0656C58.1073 42.2416 58.3313 42.4016 58.5713 42.5776C60.3953 43.9056 62.2353 44.9616 64.0753 45.7456C65.9153 46.5296 67.6593 46.9136 69.2913 46.9136C70.4113 46.9136 71.4513 46.7056 72.4113 46.3056C73.3873 45.9056 74.2513 45.2816 75.0353 44.4176C75.4993 43.9056 75.8513 43.3616 76.1233 42.7856C76.3953 42.2096 76.5233 41.6176 76.5233 41.0416C76.5233 40.5936 76.4273 40.1936 76.2673 39.7936C76.0913 39.3936 75.8033 39.0576 75.3873 38.7696L70.0913 35.0096C69.6913 34.7376 69.3233 34.5296 68.9713 34.3856C68.6193 34.2416 68.2993 34.1776 67.9953 34.1776C67.5953 34.1776 67.2273 34.2896 66.8593 34.5136C66.4913 34.7056 66.1073 35.0096 65.7073 35.4096L64.4913 36.6096C64.4068 36.698 64.3049 36.7679 64.1919 36.8147C64.079 36.8615 63.9575 36.8843 63.8353 36.8816C63.6991 36.8851 63.5635 36.8634 63.4353 36.8176C63.3233 36.7696 63.2273 36.7216 63.1473 36.6896C62.8433 36.5296 62.4913 36.3056 62.1073 36.0176M58.5393 32.8656C57.7073 32.0176 56.9393 31.1696 56.2193 30.3376C55.5153 29.5056 55.0193 28.8176 54.7313 28.2896C54.6993 28.1936 54.6513 28.0976 54.6033 27.9696C54.5716 27.8495 54.5555 27.7258 54.5553 27.6016C54.5553 27.3456 54.6353 27.1376 54.8113 26.9616L56.0273 25.6976C56.4113 25.3136 56.7153 24.9296 56.9233 24.5616C57.1473 24.1936 57.2593 23.8096 57.2593 23.4256C57.2593 23.1216 57.1793 22.7856 57.0353 22.4496C56.8913 22.0976 56.6833 21.7296 56.3953 21.3296L52.6833 16.0976C52.4141 15.707 52.0435 15.3972 51.6113 15.2016C51.2061 15.0103 50.7633 14.9119 50.3153 14.9136C49.1313 14.9136 48.0113 15.4096 46.9873 16.4176C46.1393 17.2176 45.5313 18.1136 45.1473 19.0896C44.7633 20.0496 44.5713 21.0896 44.5713 22.1776C44.5713 23.8416 44.9553 25.5856 45.7233 27.4096C46.4913 29.2176 47.5473 31.0416 48.8593 32.8656C50.1873 34.6896 51.6753 36.4336 53.3233 38.0976" stroke="white" stroke-width="2" stroke-miterlimit="10" stroke-linecap="round" stroke-linejoin="round"/>
<path d="M76.5713 14.9136L44.5713 46.9136" stroke="white" stroke-width="2" stroke-linecap="round" stroke-linejoin="round"/>
<defs>
<linearGradient id="paint0_linear_207_9284" x1="0.571289" y1="30.9136" x2="120.571" y2="30.9136" gradientUnits="userSpaceOnUse">
<stop stop-color="#CB2D3E"/>
<stop offset="1" stop-color="#EF473A"/>
</linearGradient>
<linearGradient id="paint1_linear_207_9284" x1="60.5713" y1="0.913574" x2="60.5713" y2="60.9136" gradientUnits="userSpaceOnUse">
<stop stop-color="white"/>
<stop offset="1" stop-color="white" stop-opacity="0.1"/>
</linearGradient>
</defs>
</svg>
